<svg width="55" height="96" viewBox="0 0 55 96" fill="none" xmlns="http://www.w3.org/2000/svg">
<g clip-path="url(#clip0_1_8)">
<path d="M12.1246 5.27597H49.7313V59.5976H12.1246V5.27597Z" fill="#FABE2A"/>
<path d="M-3.8147e-06 0H44.5058V35.6827H-3.8147e-06V0Z" fill="#FABE2A"/>
<path d="M18.6305 59.4952H25.485V71.6784H18.6305V59.4952Z" fill="#FABE2A"/>
<path d="M1.90735e-06 64.8736H18.6291V71.6769H1.90735e-06V64.8736Z" fill="#FABE2A"/>
<path d="M30.7537 59.5976H37.6082V72.6981H30.7537V59.5976Z" fill="#FABE2A"/>
<path d="M42.8768 59.4952H49.7313V83.7577H42.8768V59.4952Z" fill="#FABE2A"/>
<path d="M0.00143814 76.9543H37.6082V83.7577H0.00143814V76.9543Z" fill="#FABE2A"/>
<path d="M30.7537 72.5957H37.6082V81.9303H30.7537V72.5957Z" fill="#FABE2A"/>
<path d="M0.00143576 40.9586H6.85591V71.6784H0.00143576V40.9586Z" fill="#FABE2A"/>
<path d="M-3.8147e-06 0H44.5058V18.3966H-3.8147e-06V0Z" fill="#F5F5F5"/>
<path d="M44.5058 5.27597H49.7313V18.3966H44.5058V5.27597Z" fill="#F5F5F5"/>
<path d="M49.7313 38.4952H55V43.7711H49.7313V38.4952Z" fill="black"/>
<path d="M27.0708 43.7711H32.3395V49.0471H27.0708V43.7711Z" fill="black"/>
<path d="M32.3395 38.4952H37.6082V43.7711H32.3395V38.4952Z" fill="black"/>
<path d="M27.0708 38.4952H32.3395V43.7711H27.0708V38.4952Z" fill="black"/>
<path d="M32.3395 43.7711H37.6082V49.0471H32.3395V43.7711Z" fill="black"/>
<path d="M44.4842 18.3245H49.7529V23.6005H44.4842V18.3245Z" fill="#F5F5F5"/>
<path d="M33.4845 18.3245H38.7532V23.6005H33.4845V18.3245Z" fill="#F5F5F5"/>
<path d="M44.4842 23.6005H49.7529V28.8765H44.4842V23.6005Z" fill="#F5F5F5"/>
<path d="M49.7313 43.7711H55V49.0471H49.7313V43.7711Z" fill="black"/>
<path d="M22.2529 43.7711H27.5216V49.0471H22.2529V43.7711Z" fill="#AD8325"/>
<path d="M22.2529 38.4952H27.5216V43.7711H22.2529V38.4952Z" fill="#AD8325"/>
<path d="M32.3395 33.6332H37.6082V38.9091H32.3395V33.6332Z" fill="#AD8325"/>
<path d="M27.0708 33.6332H32.3395V38.9091H27.0708V33.6332Z" fill="#AD8325"/>
<path d="M22.2529 33.6332H27.5216V38.9091H22.2529V33.6332Z" fill="#AD8325"/>
<path d="M49.7313 33.2192H55V38.4952H49.7313V33.2192Z" fill="#AD8325"/>
</g>
<defs>
<clipPath id="clip0_1_8">
<rect width="55" height="96" fill="white" transform="matrix(-1 0 0 1 55 0)"/>
</clipPath>
</defs>
</svg>
